<!DOCTYPE svg PUBLIC "-//W3C//DTD SVG 20010904//EN" "http://www.w3.org/TR/2001/REC-SVG-20010904/DTD/svg10.dtd">
<svg version="1.0" xmlns="http://www.w3.org/2000/svg" width="200px" height="200px" viewBox="0 0 2000 2000" preserveAspectRatio="xMidYMid meet">
<g id="layer101" fill="#494b32" stroke="none">
 <path d="M752 1278 c-14 -14 -16 -38 -3 -38 5 0 14 7 21 15 15 18 51 20 68 3 22 -22 13 -34 -24 -30 -70 8 -114 -78 -64 -128 22 -22 79 -27 98 -8 9 9 12 9 12 0 0 -7 5 -12 10 -12 6 0 10 36 10 88 0 73 -3 92 -18 105 -22 20 -92 23 -110 5z m86 -80 c7 -7 12 -27 12 -45 0 -26 -6 -36 -25 -45 -48 -22 -86 42 -48 84 19 21 44 23 61 6z"/>
 <path d="M470 1192 c0 -25 -10 -54 -29 -84 -50 -79 -54 -88 -36 -88 9 0 30 23 47 50 17 28 33 50 35 50 2 0 17 -22 34 -50 17 -27 37 -50 45 -50 20 0 18 6 -26 76 -27 43 -40 75 -40 99 0 24 -5 35 -15 35 -11 0 -15 -11 -15 -38z"/>
 <path d="M594 1222 c-16 -10 -34 -48 -34 -70 0 -11 9 -31 21 -46 16 -20 29 -26 58 -26 48 0 73 26 73 75 0 48 -25 75 -71 75 -20 0 -41 -4 -47 -8z m76 -27 c26 -32 8 -95 -28 -95 -23 0 -52 30 -52 53 0 45 54 73 80 42z"/>
 <path d="M920 1125 c0 -63 4 -105 10 -105 6 0 10 19 10 42 0 33 3 39 12 30 7 -7 27 -12 45 -12 41 0 53 21 53 94 0 43 -3 56 -15 56 -11 0 -15 -13 -15 -54 0 -57 -15 -81 -44 -70 -24 9 -36 37 -36 83 0 23 -4 41 -10 41 -6 0 -10 -42 -10 -105z"/>
 <path d="M1090 1211 c-5 -11 -10 -45 -10 -75 0 -43 3 -56 15 -56 11 0 15 12 15 49 0 62 7 81 31 81 27 0 49 -39 49 -87 0 -32 4 -43 15 -43 12 0 15 15 15 75 0 60 -3 75 -15 75 -8 0 -15 -5 -15 -12 0 -9 -3 -9 -12 0 -20 20 -76 15 -88 -7z"/>
 <path d="M1250 1156 l0 -73 40 0 c46 0 50 8 15 31 -21 14 -25 24 -25 66 0 38 -4 50 -15 50 -12 0 -15 -15 -15 -74z"/>
 <path d="M1360 1166 c0 -42 -4 -66 -12 -70 -10 -5 -10 -7 0 -12 6 -3 12 -17 12 -30 0 -13 5 -24 10 -24 6 0 10 11 10 25 0 18 5 25 20 25 11 0 20 5 20 10 0 6 -9 10 -20 10 -17 0 -20 7 -20 43 0 51 11 70 33 61 12 -4 17 -1 17 10 0 12 -10 16 -35 16 l-35 0 0 -64z"/>
 <path d="M363 811 c-66 -113 -88 -159 -81 -168 12 -15 383 -19 392 -5 8 13 -186 320 -204 325 -13 3 -40 -35 -107 -152z"/>
 <path d="M600 948 c0 -6 36 -72 79 -147 44 -75 83 -144 87 -154 4 -11 15 -17 28 -15 15 2 44 44 109 155 49 84 86 157 82 163 -9 15 -385 14 -385 -2z"/>
 <path d="M996 806 c-47 -85 -86 -159 -86 -165 0 -13 358 -15 377 -3 18 12 -162 322 -187 322 -12 0 -43 -45 -104 -154z"/>
 <path d="M1230 938 c0 -6 39 -78 86 -159 111 -192 105 -192 210 -9 43 74 84 145 92 158 l14 22 -201 0 c-146 0 -201 -3 -201 -12z"/>
 </g>
<g id="layer102" fill="#986221" stroke="none">
 <path d="M392 862 c-34 -59 -75 -131 -93 -161 -17 -30 -25 -51 -17 -49 7 2 46 60 86 129 99 168 103 177 94 183 -5 3 -36 -43 -70 -102z"/>
 <path d="M1110 950 c0 -14 152 -285 171 -304 5 -5 11 -7 14 -5 4 5 -158 293 -176 314 -6 5 -9 3 -9 -5z"/>
 <path d="M949 907 c-15 -23 -54 -90 -88 -148 -57 -98 -73 -138 -52 -125 10 6 181 299 181 310 0 17 -18 1 -41 -37z"/>
 <path d="M1590 939 c0 -5 -37 -73 -81 -150 -50 -86 -78 -144 -73 -149 6 -6 40 43 89 128 43 75 85 147 93 160 13 20 13 22 -7 22 -11 0 -21 -5 -21 -11z"/>
 <path d="M642 918 c8 -13 21 -34 28 -47 l12 -24 24 39 c13 21 24 42 24 47 0 4 -23 7 -51 7 -51 0 -51 0 -37 -22z"/>
 <path d="M721 888 l-30 -51 20 -39 c11 -21 21 -38 24 -38 5 0 105 167 105 175 0 3 -20 5 -45 5 -43 0 -45 -2 -74 -52z"/>
 <path d="M846 918 c-66 -107 -97 -172 -92 -191 7 -25 34 -63 40 -56 4 4 128 215 146 249 10 19 8 20 -34 20 -36 0 -48 -5 -60 -22z"/>
 <path d="M447 886 l-26 -46 55 0 54 0 -26 43 c-15 23 -28 43 -29 45 -2 2 -14 -17 -28 -42z"/>
 <path d="M1272 922 c9 -24 144 -252 148 -252 3 0 14 14 24 30 l17 30 -58 100 c-57 99 -58 100 -96 100 -21 0 -37 -4 -35 -8z"/>
 <path d="M1372 908 c8 -13 32 -53 53 -90 22 -38 42 -68 46 -68 3 0 14 18 24 39 17 39 17 39 -11 90 -29 50 -30 51 -78 51 -48 0 -48 0 -34 -22z"/>
 <path d="M1490 890 c11 -22 24 -40 29 -40 8 0 51 64 51 76 0 2 -23 4 -50 4 l-50 0 20 -40z"/>
 <path d="M1051 850 c-31 -55 -37 -72 -26 -76 13 -5 97 45 110 66 6 10 -19 65 -34 74 -5 4 -28 -26 -50 -64z"/>
 <path d="M1107 797 c-26 -17 -47 -35 -47 -38 0 -3 27 -18 61 -34 33 -16 56 -31 50 -33 -6 -2 -42 13 -80 33 -39 21 -76 35 -84 32 -7 -2 -25 -28 -40 -56 l-28 -51 147 0 c125 0 145 2 135 14 -10 12 -8 13 9 9 18 -5 15 5 -26 73 -26 44 -48 80 -49 81 -1 2 -22 -12 -48 -30z"/>
 <path d="M370 751 c-64 -111 -75 -101 110 -101 l162 0 -28 48 c-75 129 -67 122 -139 122 l-64 0 -41 -69z"/>
 </g>
<g id="layer103" fill="#559d37" stroke="none">
 <path d="M392 862 c-34 -59 -75 -131 -93 -161 -17 -30 -25 -51 -17 -49 7 2 46 60 86 129 99 168 103 177 94 183 -5 3 -36 -43 -70 -102z"/>
 <path d="M1110 950 c0 -14 152 -285 171 -304 5 -5 11 -7 14 -5 4 5 -158 293 -176 314 -6 5 -9 3 -9 -5z"/>
 <path d="M938 888 c-20 -35 -46 -80 -57 -100 -12 -21 -30 -55 -42 -75 -11 -21 -25 -42 -30 -48 -12 -12 -12 -38 0 -31 10 6 181 299 181 310 0 20 -21 -2 -52 -56z"/>
 <path d="M1590 939 c0 -5 -37 -73 -81 -150 -50 -86 -78 -144 -73 -149 6 -6 40 43 89 128 43 75 85 147 93 160 13 20 13 22 -7 22 -11 0 -21 -5 -21 -11z"/>
 <path d="M646 932 c-3 -5 4 -23 15 -42 l20 -33 25 36 c13 20 24 38 24 41 0 9 -78 7 -84 -2z"/>
 <path d="M722 888 l-30 -53 20 -39 c19 -38 21 -39 35 -20 33 45 84 145 78 154 -3 6 -21 10 -40 10 -30 0 -36 -6 -63 -52z"/>
 <path d="M806 844 c-31 -53 -56 -100 -56 -104 0 -5 8 -22 18 -39 17 -30 32 -40 32 -21 0 5 16 34 35 64 19 30 35 57 35 60 0 3 16 31 35 61 20 31 33 60 30 65 -3 6 -21 10 -40 10 -31 0 -36 -5 -89 -96z"/>
 <path d="M447 886 l-26 -46 55 0 54 0 -26 43 c-15 23 -28 43 -29 45 -2 2 -14 -17 -28 -42z"/>
 <path d="M1272 922 c9 -24 144 -252 148 -252 3 0 14 14 24 30 l17 30 -58 100 c-57 99 -58 100 -96 100 -21 0 -37 -4 -35 -8z"/>
 <path d="M1372 908 c8 -13 32 -53 53 -90 22 -38 42 -68 46 -68 3 0 14 18 24 39 17 39 17 39 -11 90 -29 50 -30 51 -78 51 -48 0 -48 0 -34 -22z"/>
 <path d="M1490 890 c11 -22 24 -40 29 -40 8 0 51 64 51 76 0 2 -23 4 -50 4 l-50 0 20 -40z"/>
 <path d="M1051 850 c-31 -55 -37 -72 -26 -76 13 -5 97 45 110 66 6 10 -19 65 -34 74 -5 4 -28 -26 -50 -64z"/>
 <path d="M1107 797 c-26 -17 -47 -35 -47 -38 0 -3 27 -18 61 -34 33 -16 56 -31 50 -33 -6 -2 -42 13 -80 33 -39 21 -76 35 -84 32 -7 -2 -25 -28 -40 -56 l-28 -51 147 0 c125 0 145 2 135 14 -10 12 -8 13 9 9 18 -5 15 5 -26 73 -26 44 -48 80 -49 81 -1 2 -22 -12 -48 -30z"/>
 <path d="M370 751 c-64 -111 -75 -101 110 -101 l162 0 -28 48 c-75 129 -67 122 -139 122 l-64 0 -41 -69z"/>
 </g>
<g id="layer104" fill="#507494" stroke="none">
 <path d="M392 862 c-34 -59 -75 -131 -93 -161 -17 -30 -25 -51 -17 -49 7 2 46 60 86 129 99 168 103 177 94 183 -5 3 -36 -43 -70 -102z"/>
 <path d="M1110 951 c0 -10 160 -291 176 -310 2 -2 6 -2 9 0 4 5 -158 294 -176 314 -6 5 -9 4 -9 -4z"/>
 <path d="M938 888 c-20 -35 -46 -80 -57 -100 -12 -21 -30 -55 -42 -75 -11 -21 -25 -42 -30 -48 -12 -12 -12 -38 0 -31 10 6 181 299 181 310 0 20 -21 -2 -52 -56z"/>
 <path d="M1590 939 c0 -5 -37 -73 -81 -150 -50 -86 -78 -144 -73 -149 6 -6 40 43 89 128 43 75 85 147 93 160 13 20 13 22 -7 22 -11 0 -21 -5 -21 -11z"/>
 <path d="M646 932 c-3 -5 4 -23 15 -42 l20 -33 25 36 c13 20 24 38 24 41 0 9 -78 7 -84 -2z"/>
 <path d="M722 888 l-30 -53 20 -39 c19 -38 21 -39 35 -20 33 45 84 145 78 154 -3 6 -21 10 -40 10 -30 0 -36 -6 -63 -52z"/>
 <path d="M806 844 c-31 -53 -56 -100 -56 -104 0 -5 8 -22 18 -39 17 -30 32 -40 32 -21 0 5 16 34 35 64 19 30 35 57 35 60 0 3 16 31 35 61 20 31 33 60 30 65 -3 6 -21 10 -40 10 -31 0 -36 -5 -89 -96z"/>
 <path d="M447 886 l-26 -46 55 0 54 0 -26 43 c-15 23 -28 43 -29 45 -2 2 -14 -17 -28 -42z"/>
 <path d="M1272 922 c9 -24 144 -252 148 -252 3 0 14 14 24 30 l17 30 -58 100 c-57 99 -58 100 -96 100 -21 0 -37 -4 -35 -8z"/>
 <path d="M1372 908 c8 -13 32 -53 53 -90 22 -38 42 -68 46 -68 3 0 14 18 24 39 17 39 17 39 -11 90 -29 50 -30 51 -78 51 -48 0 -48 0 -34 -22z"/>
 <path d="M1490 890 c11 -22 24 -40 29 -40 8 0 51 64 51 76 0 2 -23 4 -50 4 l-50 0 20 -40z"/>
 <path d="M1055 854 c-45 -80 -37 -97 26 -53 24 17 48 35 52 39 7 6 -29 80 -38 80 -2 0 -20 -30 -40 -66z"/>
 <path d="M370 751 c-64 -111 -75 -101 110 -101 l162 0 -28 48 c-75 129 -67 122 -139 122 l-64 0 -41 -69z"/>
 <path d="M1108 793 c-21 -14 -38 -29 -38 -32 0 -4 38 -26 85 -49 47 -23 85 -39 85 -36 0 10 -84 144 -90 143 -3 0 -22 -12 -42 -26z"/>
 <path d="M972 708 l-29 -53 68 -3 c38 -2 102 -2 142 0 l72 3 -109 53 c-60 28 -110 52 -111 52 -2 0 -16 -24 -33 -52z"/>
 </g>
<g id="layer105" fill="#74d04c" stroke="none">
 <path d="M392 862 c-34 -59 -75 -131 -93 -161 -17 -30 -25 -51 -17 -49 7 2 46 60 86 129 99 168 103 177 94 183 -5 3 -36 -43 -70 -102z"/>
 <path d="M1110 951 c0 -10 160 -291 176 -310 2 -2 6 -2 9 0 4 5 -158 294 -176 314 -6 5 -9 4 -9 -4z"/>
 <path d="M938 888 c-20 -35 -46 -80 -57 -100 -12 -21 -30 -55 -42 -75 -11 -21 -25 -42 -30 -48 -12 -12 -12 -38 0 -31 10 6 181 299 181 310 0 20 -21 -2 -52 -56z"/>
 <path d="M1567 888 c-19 -35 -58 -103 -86 -152 -29 -49 -48 -93 -44 -97 5 -5 44 53 88 129 43 75 85 147 93 160 13 19 12 22 -1 22 -8 0 -31 -28 -50 -62z"/>
 <path d="M646 932 c-3 -5 4 -23 15 -42 l20 -33 25 36 c13 20 24 38 24 41 0 9 -78 7 -84 -2z"/>
 <path d="M722 888 l-30 -53 20 -39 c19 -38 21 -39 35 -20 33 45 84 145 78 154 -3 6 -21 10 -40 10 -30 0 -36 -6 -63 -52z"/>
 <path d="M806 844 c-31 -53 -56 -100 -56 -104 0 -5 8 -22 18 -39 17 -30 32 -40 32 -21 0 5 16 34 35 64 19 30 35 57 35 60 0 3 16 31 35 61 20 31 33 60 30 65 -3 6 -21 10 -40 10 -31 0 -36 -5 -89 -96z"/>
 <path d="M447 886 l-26 -46 55 0 54 0 -26 43 c-15 23 -28 43 -29 45 -2 2 -14 -17 -28 -42z"/>
 <path d="M1272 922 c9 -25 144 -252 149 -252 3 0 12 15 21 33 15 32 15 33 -38 122 -30 49 -54 93 -54 97 0 5 -18 8 -41 8 -22 0 -39 -4 -37 -8z"/>
 <path d="M1412 843 c28 -49 52 -89 53 -91 2 -2 13 13 25 33 l22 36 -28 54 c-29 55 -29 55 -76 55 l-48 0 52 -87z"/>
 <path d="M1492 890 c13 -22 25 -40 28 -40 3 0 15 18 28 40 l23 40 -51 0 -51 0 23 -40z"/>
 <path d="M1055 854 c-45 -80 -37 -97 26 -53 24 17 48 35 52 39 7 6 -29 80 -38 80 -2 0 -20 -30 -40 -66z"/>
 <path d="M370 751 c-64 -111 -75 -101 110 -101 l162 0 -28 48 c-75 129 -67 122 -139 122 l-64 0 -41 -69z"/>
 <path d="M1108 793 c-21 -14 -38 -29 -38 -32 0 -4 38 -26 85 -49 47 -23 85 -39 85 -36 0 10 -84 144 -90 143 -3 0 -22 -12 -42 -26z"/>
 <path d="M972 708 l-29 -53 68 -3 c38 -2 102 -2 142 0 l72 3 -109 53 c-60 28 -110 52 -111 52 -2 0 -16 -24 -33 -52z"/>
 </g>
<g id="layer106" fill="#618db3" stroke="none">
 <path d="M392 862 c-34 -59 -75 -131 -93 -161 -17 -30 -25 -51 -17 -49 7 2 46 60 86 129 99 168 103 177 94 183 -5 3 -36 -43 -70 -102z"/>
 <path d="M938 888 c-20 -35 -46 -80 -57 -100 -12 -21 -30 -55 -42 -75 -11 -21 -25 -42 -30 -48 -12 -12 -12 -38 0 -31 10 6 181 299 181 310 0 20 -21 -2 -52 -56z"/>
 <path d="M1567 888 c-19 -35 -58 -103 -86 -152 -29 -49 -48 -93 -44 -97 5 -5 44 53 88 129 43 75 85 147 93 160 13 19 12 22 -1 22 -8 0 -31 -28 -50 -62z"/>
 <path d="M646 932 c-3 -5 4 -23 15 -42 l20 -33 25 36 c13 20 24 38 24 41 0 9 -78 7 -84 -2z"/>
 <path d="M722 888 l-30 -53 20 -39 c19 -38 21 -39 35 -20 33 45 84 145 78 154 -3 6 -21 10 -40 10 -30 0 -36 -6 -63 -52z"/>
 <path d="M806 844 c-31 -53 -56 -100 -56 -104 0 -5 8 -22 18 -39 17 -30 32 -40 32 -21 0 5 16 34 35 64 19 30 35 57 35 60 0 3 16 31 35 61 20 31 33 60 30 65 -3 6 -21 10 -40 10 -31 0 -36 -5 -89 -96z"/>
 <path d="M447 886 l-26 -46 55 0 54 0 -26 43 c-15 23 -28 43 -29 45 -2 2 -14 -17 -28 -42z"/>
 <path d="M1272 922 c9 -25 144 -252 149 -252 3 0 12 15 21 33 15 32 15 33 -38 122 -30 49 -54 93 -54 97 0 5 -18 8 -41 8 -22 0 -39 -4 -37 -8z"/>
 <path d="M1412 843 c28 -49 52 -89 53 -91 2 -2 13 13 25 33 l22 36 -28 54 c-29 55 -29 55 -76 55 l-48 0 52 -87z"/>
 <path d="M1492 890 c13 -22 25 -40 28 -40 3 0 15 18 28 40 l23 40 -51 0 -51 0 23 -40z"/>
 <path d="M370 751 c-64 -111 -75 -101 110 -101 l162 0 -28 48 c-75 129 -67 122 -139 122 l-64 0 -41 -69z"/>
 </g>
<g id="layer107" fill="#f2af05" stroke="none">
 <path d="M392 862 c-34 -59 -75 -131 -93 -161 -17 -30 -25 -51 -17 -49 7 2 46 60 86 129 99 168 103 177 94 183 -5 3 -36 -43 -70 -102z"/>
 <path d="M938 888 c-20 -35 -46 -80 -57 -100 -12 -21 -30 -55 -42 -75 -11 -21 -25 -42 -30 -48 -12 -12 -12 -38 0 -31 10 6 181 299 181 310 0 20 -21 -2 -52 -56z"/>
 <path d="M1555 863 c-107 -187 -125 -222 -117 -227 4 -3 44 57 87 132 43 75 85 147 93 160 12 18 12 22 1 22 -8 0 -36 -40 -64 -87z"/>
 <path d="M646 932 c-3 -5 4 -23 15 -42 l20 -33 25 36 c13 20 24 38 24 41 0 9 -78 7 -84 -2z"/>
 <path d="M722 888 l-30 -53 20 -39 c19 -38 21 -39 35 -20 33 45 84 145 78 154 -3 6 -21 10 -40 10 -30 0 -36 -6 -63 -52z"/>
 <path d="M806 844 c-31 -53 -56 -100 -56 -104 0 -5 8 -22 18 -39 17 -30 32 -40 32 -21 0 5 16 34 35 64 19 30 35 57 35 60 0 3 16 31 35 61 20 31 33 60 30 65 -3 6 -21 10 -40 10 -31 0 -36 -5 -89 -96z"/>
 <path d="M447 886 l-26 -46 55 0 54 0 -26 43 c-15 23 -28 43 -29 45 -2 2 -14 -17 -28 -42z"/>
 <path d="M1270 926 c0 -4 139 -246 146 -255 2 -2 12 11 22 29 l20 31 -46 77 c-25 42 -51 87 -59 100 -10 16 -23 22 -48 22 -19 0 -35 -2 -35 -4z"/>
 <path d="M1370 925 c0 -12 92 -165 99 -165 4 0 15 15 23 34 16 32 15 35 -13 85 -28 48 -32 51 -69 51 -22 0 -40 -2 -40 -5z"/>
 <path d="M1480 925 c0 -14 31 -65 39 -65 5 0 18 16 30 35 l20 35 -44 0 c-25 0 -45 -2 -45 -5z"/>
 <path d="M370 751 c-64 -111 -75 -101 110 -101 l162 0 -28 48 c-75 129 -67 122 -139 122 l-64 0 -41 -69z"/>
 </g>
<g id="layer108" fill="#e26bb0" stroke="none">
 <path d="M392 862 c-34 -59 -75 -131 -93 -161 -17 -30 -25 -51 -17 -49 7 2 46 60 86 129 99 168 103 177 94 183 -5 3 -36 -43 -70 -102z"/>
 <path d="M1555 863 c-107 -187 -125 -222 -117 -227 4 -3 44 57 87 132 43 75 85 147 93 160 12 18 12 22 1 22 -8 0 -36 -40 -64 -87z"/>
 <path d="M447 886 l-26 -46 55 0 54 0 -26 43 c-15 23 -28 43 -29 45 -2 2 -14 -17 -28 -42z"/>
 <path d="M1270 926 c0 -4 139 -246 146 -255 2 -2 12 11 22 29 l20 31 -46 77 c-25 42 -51 87 -59 100 -10 16 -23 22 -48 22 -19 0 -35 -2 -35 -4z"/>
 <path d="M1370 925 c0 -12 92 -165 99 -165 4 0 15 15 23 34 16 32 15 35 -13 85 -28 48 -32 51 -69 51 -22 0 -40 -2 -40 -5z"/>
 <path d="M1480 925 c0 -14 31 -65 39 -65 5 0 18 16 30 35 l20 35 -44 0 c-25 0 -45 -2 -45 -5z"/>
 <path d="M370 751 c-64 -111 -75 -101 110 -101 l162 0 -28 48 c-75 129 -67 122 -139 122 l-64 0 -41 -69z"/>
 </g>
<g id="layer109" fill="#8bc6fb" stroke="none">
 <path d="M1555 863 c-107 -187 -125 -222 -117 -227 4 -3 44 57 87 132 43 75 85 147 93 160 12 18 12 22 1 22 -8 0 -36 -40 -64 -87z"/>
 <path d="M1270 926 c0 -4 139 -246 146 -255 2 -2 12 11 22 29 l20 31 -46 77 c-25 42 -51 87 -59 100 -10 16 -23 22 -48 22 -19 0 -35 -2 -35 -4z"/>
 <path d="M1370 925 c0 -12 92 -165 99 -165 4 0 15 15 23 34 16 32 15 35 -13 85 -28 48 -32 51 -69 51 -22 0 -40 -2 -40 -5z"/>
 <path d="M1480 925 c0 -14 31 -65 39 -65 5 0 18 16 30 35 l20 35 -44 0 c-25 0 -45 -2 -45 -5z"/>
 </g>

</svg>